<?xml version="1.0" encoding="utf-8"?>
<!-- Generator: Adobe Illustrator 17.0.0, SVG Export Plug-In . SVG Version: 6.00 Build 0)  -->
<!DOCTYPE svg PUBLIC "-//W3C//DTD SVG 1.1//EN" "http://www.w3.org/Graphics/SVG/1.1/DTD/svg11.dtd">
<svg version="1.1" id="Layer_2" xmlns="http://www.w3.org/2000/svg" xmlns:xlink="http://www.w3.org/1999/xlink" x="0px" y="0px"
	 width="146px" height="162px" viewBox="0 0 146 162" enable-background="new 0 0 146 162" xml:space="preserve">
<g>
	<path fill="#F0C814" d="M144.966,110.942c0,6.606-4.678,14.711-10.396,18.013l-51.11,29.508c-5.718,3.301-15.078,3.301-20.799,0
		l-51.107-29.509c-5.722-3.301-10.403-11.406-10.403-18.013V51.93c0-6.606,4.682-14.711,10.403-18.012L62.66,4.408
		c5.722-3.301,15.081-3.301,20.799,0l51.11,29.509c5.718,3.301,10.396,11.406,10.396,18.012V110.942L144.966,110.942z"/>
	<path d="M137.301,107.799c0,5.901-4.181,13.142-9.289,16.093l-45.663,26.362c-5.112,2.951-13.47,2.951-18.582,0l-45.66-26.362
		c-5.112-2.951-9.293-10.192-9.293-16.093V55.073c0-5.9,4.181-13.142,9.293-16.093l45.66-26.362c5.112-2.951,13.47-2.951,18.582,0
		l45.663,26.362c5.108,2.951,9.289,10.194,9.289,16.093L137.301,107.799L137.301,107.799z"/>
	<g>
		<path fill="#F0C814" d="M53.656,82.265c-4.282,7.396-9.19,13.255-15.215,13.255c-5.122,0-7.393-3.853-3.644-13.203l1.217-3.063
			c1.056-2.534,1.848-4.542,1.848-5.332c0-0.687-0.58-1.111-1.429-1.111c-1.321,0-3.802,1.162-6.125,3.805l-7.342,18.22H15.52
			L32.817,52.91h7.448L32.95,70.222c0,0,3.751-3.485,8.137-3.485c3.06,0,4.855,1.635,4.855,4.434c0,1.428-0.527,3.38-1.637,6.129
			l-2.799,6.863c-2.485,6.078-1.268,6.711-0.419,6.711c2.32,0,6.175-4.172,9.873-10.566C51.965,80.365,53.337,81.367,53.656,82.265z
			"/>
		<path fill="#F0C814" d="M79.22,82.265c-3.648,6.339-9.933,13.255-19.492,13.255c-6.657,0-9.981-3.325-9.981-8.87
			c0-7.237,5.596-19.912,16.107-19.912c5.706,0,9.987,4.117,6.655,11.303c-2.323,5.125-6.705,7.607-15.476,6.551
			c0,0-2.005,6.284,4.701,6.284c5.286,0,10.986-3.91,14.789-10.566C77.527,80.365,78.899,81.367,79.22,82.265z M58.303,80.574
			c4.912,0.792,6.706-1.531,7.818-4.227c1-2.163,1.158-3.644-0.687-3.644C61.31,72.704,58.303,80.574,58.303,80.574z"/>
		<path fill="#F0C814" d="M107.788,82.265c-5.439,9.506-11.406,12.728-17.216,15.474c0,0-0.741,1.901-1.268,3.276
			c-2.165,5.072-5.127,10.142-11.094,10.142c-4.224,0-6.232-2.59-6.178-5.598c0.106-3.541,3.225-5.862,5.967-7.13
			c1.958-0.951,4.912-2.167,6.075-2.854l1.375-3.329c0,0-2.537,3.274-6.286,3.274c-4.117,0-7.553-3.43-3.644-13.042l6.125-15.056
			h7.453l-6.765,16.743c-2.112,5.231-1.425,6.078-0.316,6.078c2.374,0,5.016-3.965,7.815-8.927l5.652-13.894h7.45L92.524,92.986
			c4.968-2.535,8.823-6.124,12.575-12.677C106.101,80.365,107.473,81.367,107.788,82.265z M77.205,106.457
			c1.27-0.055,3.225-1.428,5.022-6.234c-1.586,0.686-2.803,1.164-4.278,2.005c-1.214,0.794-2.219,1.741-2.219,2.801
			C75.73,105.872,76.31,106.457,77.205,106.457z"/>
	</g>
	<path fill="#FFFFFF" d="M25.573,124.128h13.609v7.472H11.288l8.755-9.403l-8.755-8.435h14.284L25.573,124.128L25.573,124.128z
		 M134.828,113.762H120.54v10.365h-13.604v7.472h27.893l-8.759-9.403L134.828,113.762z M119.579,105.327H26.533v17.838h93.046
		L119.579,105.327L119.579,105.327z"/>
	<g enable-background="new    ">
		<path d="M48.942,108.375v0.974c0,0.286-0.138,0.459-0.415,0.518c-0.026,0.004-0.06,0.011-0.103,0.019
			c-0.044,0.008-0.124,0.022-0.24,0.043c-0.116,0.021-0.274,0.049-0.472,0.084l-4.178,10.346H41.52l-4.178-10.345
			c-0.2-0.036-0.358-0.064-0.475-0.084s-0.197-0.035-0.241-0.043c-0.044-0.009-0.078-0.015-0.103-0.019
			c-0.277-0.059-0.415-0.232-0.415-0.518v-0.975h0.572h0.683h1.115h2.105v0.975c0,0.286-0.138,0.459-0.415,0.518
			c-0.017,0.004-0.043,0.01-0.079,0.019c-0.036,0.009-0.093,0.023-0.173,0.043c-0.08,0.02-0.167,0.041-0.264,0.064l2.388,6.196
			c0.094,0.238,0.184,0.499,0.269,0.783c0.086,0.286,0.167,0.586,0.244,0.899c0.127-0.635,0.285-1.196,0.472-1.682l2.38-6.193
			c-0.099-0.024-0.19-0.046-0.271-0.066c-0.081-0.02-0.14-0.035-0.177-0.044c-0.037-0.009-0.063-0.016-0.08-0.019
			c-0.276-0.059-0.415-0.232-0.415-0.518v-0.975h2.11h1.111h0.687L48.942,108.375z"/>
		<path d="M54.857,109.886c-0.045,0.008-0.127,0.023-0.247,0.045c-0.12,0.021-0.283,0.05-0.49,0.087v8.698
			c0.207,0.037,0.37,0.066,0.49,0.087c0.12,0.021,0.202,0.036,0.247,0.045c0.045,0.008,0.08,0.014,0.104,0.019
			c0.277,0.059,0.415,0.232,0.415,0.519v0.974h-1.256h-2.238h-1.256v-0.974c0-0.286,0.138-0.459,0.415-0.519
			c0.024-0.004,0.059-0.01,0.104-0.019s0.128-0.023,0.247-0.045c0.119-0.021,0.283-0.05,0.49-0.087v-8.698
			c-0.207-0.037-0.37-0.066-0.49-0.087c-0.119-0.021-0.202-0.036-0.247-0.045c-0.045-0.009-0.08-0.015-0.104-0.019
			c-0.277-0.059-0.415-0.232-0.415-0.519v-0.974h1.256h2.238h1.256v0.974c0,0.286-0.138,0.459-0.415,0.519
			C54.937,109.872,54.902,109.878,54.857,109.886z"/>
		<path d="M65.931,108.375v1.154v0.62v1.375H65.86h-0.201h-0.682c-0.213,0-0.342-0.103-0.386-0.309
			c-0.023-0.129-0.063-0.484-0.12-1.066h-3.852v3.323h4.053v1.716h-4.053v3.39h3.852c0.058-0.583,0.098-0.939,0.12-1.067
			c0.044-0.206,0.173-0.309,0.386-0.309h0.682h0.201h0.071v1.376v0.619v1.163h-7.558h-1.256v-0.974c0-0.286,0.138-0.459,0.415-0.519
			c0.024-0.004,0.059-0.011,0.104-0.019c0.045-0.008,0.127-0.023,0.247-0.045c0.12-0.021,0.283-0.05,0.49-0.087v-8.698
			c-0.207-0.036-0.37-0.066-0.49-0.087c-0.12-0.022-0.202-0.037-0.247-0.045c-0.045-0.008-0.08-0.014-0.104-0.019
			c-0.276-0.059-0.415-0.232-0.415-0.519v-0.974h1.256L65.931,108.375z"/>
		<path d="M80.33,108.375v0.974c0,0.286-0.138,0.459-0.415,0.519c-0.024,0.004-0.059,0.01-0.104,0.019
			c-0.045,0.008-0.127,0.023-0.247,0.045c-0.12,0.021-0.283,0.05-0.49,0.087v10.341h-1.152c-0.177,0-0.323-0.028-0.439-0.083
			c-0.116-0.055-0.229-0.155-0.34-0.298l-6.266-7.981c0.017,0.178,0.029,0.353,0.037,0.526c0.008,0.174,0.012,0.333,0.012,0.477
			v5.717c0.695,0.096,1.054,0.146,1.08,0.15c0.277,0.059,0.415,0.232,0.415,0.519v0.974h-1.495h-1.964h-1.256v-0.974
			c0-0.286,0.138-0.459,0.415-0.519c0.024-0.004,0.059-0.01,0.104-0.019s0.128-0.023,0.247-0.045c0.119-0.021,0.283-0.05,0.49-0.087
			v-8.698c-0.207-0.037-0.37-0.066-0.49-0.087c-0.119-0.021-0.202-0.036-0.247-0.044c-0.045-0.008-0.08-0.015-0.104-0.019
			c-0.277-0.059-0.415-0.232-0.415-0.518v-0.975h1.256h1.169c0.099,0,0.182,0.004,0.249,0.013c0.066,0.008,0.125,0.025,0.178,0.05
			c0.052,0.025,0.103,0.061,0.153,0.108c0.049,0.047,0.104,0.109,0.166,0.187l6.29,8.014c-0.022-0.192-0.037-0.382-0.046-0.568
			c-0.009-0.185-0.013-0.358-0.013-0.518v-5.642c-0.689-0.095-1.05-0.145-1.081-0.15c-0.276-0.059-0.415-0.232-0.415-0.519v-0.974
			h1.495h1.964H80.33z"/>
	</g>
	<g enable-background="new    ">
		<path d="M94.942,108.375v0.974c0,0.286-0.138,0.459-0.415,0.519c-0.024,0.004-0.059,0.01-0.104,0.019
			c-0.045,0.008-0.127,0.023-0.247,0.045s-0.283,0.05-0.49,0.087v10.341h-1.152c-0.177,0-0.323-0.028-0.439-0.083
			c-0.116-0.055-0.229-0.155-0.34-0.298l-6.266-7.981c0.017,0.178,0.029,0.353,0.037,0.526c0.008,0.174,0.012,0.333,0.012,0.477
			v5.717c0.695,0.096,1.054,0.146,1.08,0.15c0.276,0.059,0.415,0.232,0.415,0.519v0.974h-1.495h-1.964h-1.255v-0.974
			c0-0.286,0.138-0.459,0.415-0.519c0.024-0.004,0.059-0.01,0.104-0.019s0.128-0.023,0.247-0.045c0.119-0.021,0.282-0.05,0.49-0.087
			v-8.698c-0.207-0.037-0.37-0.066-0.49-0.087c-0.119-0.021-0.202-0.036-0.247-0.044c-0.045-0.008-0.08-0.015-0.104-0.019
			c-0.277-0.059-0.415-0.232-0.415-0.518v-0.975h1.255h1.169c0.099,0,0.182,0.004,0.249,0.013c0.066,0.008,0.125,0.025,0.178,0.05
			c0.052,0.025,0.103,0.061,0.153,0.108c0.049,0.047,0.104,0.109,0.166,0.187l6.291,8.014c-0.022-0.192-0.037-0.382-0.046-0.568
			c-0.009-0.185-0.013-0.358-0.012-0.518v-5.642c-0.69-0.095-1.05-0.145-1.081-0.15c-0.276-0.059-0.415-0.232-0.415-0.519v-0.974
			h1.496h1.964H94.942z"/>
	</g>
	<g enable-background="new    ">
		<path d="M108.508,119.513v0.846h-0.588h-1.298h-0.277h-0.149h-1.737v-0.846c0-0.192,0.11-0.334,0.329-0.425
			c0.04-0.016,0.15-0.063,0.331-0.138l-0.064-0.175l-0.595-1.631h-4.773l-0.622,1.7l-0.038,0.105
			c0.182,0.077,0.293,0.123,0.331,0.139c0.219,0.091,0.329,0.233,0.329,0.425v0.846h-1.729h-0.157h-0.277h-1.298h-0.588v-0.846
			c0-0.192,0.11-0.334,0.329-0.425c0.087-0.036,0.39-0.163,0.908-0.382l4.058-10.332h2.279l4.058,10.332
			c0.521,0.22,0.824,0.347,0.908,0.382C108.399,119.179,108.508,119.321,108.508,119.513z M100.26,115.57h3.627l-1.362-3.723
			c-0.067-0.18-0.141-0.389-0.22-0.626c-0.08-0.24-0.159-0.501-0.236-0.783c-0.078,0.284-0.154,0.547-0.228,0.787
			c-0.074,0.242-0.147,0.455-0.219,0.638L100.26,115.57z"/>
	</g>
	<path fill="#F0C814" d="M107.788,93.062c0-3.04,2.401-5.44,5.44-5.44s5.494,2.4,5.494,5.44c0,3.04-2.454,5.44-5.494,5.44
		C110.189,98.502,107.788,96.102,107.788,93.062z M113.921,84.902l8-25.334h9.814l-12.588,25.334H113.921z"/>
</g>
</svg>
