<?xml version="1.0" encoding="utf-8"?>
<!-- Generator: Adobe Illustrator 17.0.0, SVG Export Plug-In . SVG Version: 6.00 Build 0)  -->
<!DOCTYPE svg PUBLIC "-//W3C//DTD SVG 1.1//EN" "http://www.w3.org/Graphics/SVG/1.1/DTD/svg11.dtd">
<svg version="1.1" id="Vector_Smart_Object_xA0_Obraz_1_"
	 xmlns="http://www.w3.org/2000/svg" xmlns:xlink="http://www.w3.org/1999/xlink" x="0px" y="0px" width="119px" height="132px"
	 viewBox="0 0 119 132" enable-background="new 0 0 119 132" xml:space="preserve">
<g>
	<path fill="#F0C814" d="M118.765,90.193c0,5.448-3.858,12.133-8.574,14.857l-42.154,24.337c-4.716,2.723-12.436,2.723-17.154,0
		L8.731,105.049c-4.719-2.723-8.58-9.407-8.58-14.857v-48.67c0-5.448,3.862-12.133,8.58-14.856L50.882,2.327
		c4.719-2.723,12.438-2.723,17.154,0l42.154,24.338c4.716,2.723,8.574,9.407,8.574,14.856L118.765,90.193L118.765,90.193z"/>
	<path d="M112.443,87.601c0,4.867-3.448,10.839-7.661,13.273L67.12,122.616c-4.216,2.434-11.11,2.434-15.326,0l-37.659-21.743
		C9.92,98.44,6.471,92.468,6.471,87.601V44.114c0-4.866,3.448-10.839,7.665-13.273L51.795,9.099c4.216-2.434,11.11-2.434,15.326,0
		l37.661,21.743c4.213,2.434,7.661,8.408,7.661,13.273V87.601L112.443,87.601z"/>
	<g>
		<path fill="#F0C814" d="M43.455,66.541c-3.532,6.1-7.58,10.932-12.549,10.932c-4.224,0-6.098-3.178-3.005-10.889l1.004-2.526
			c0.871-2.09,1.524-3.746,1.524-4.398c0-0.567-0.478-0.916-1.179-0.916c-1.09,0-3.136,0.958-5.052,3.138L18.143,76.91h-6.141
			L26.268,42.33h6.143l-6.033,14.278c0,0,3.094-2.874,6.711-2.874c2.524,0,4.004,1.348,4.004,3.657c0,1.178-0.435,2.788-1.35,5.055
			l-2.309,5.66c-2.05,5.013-1.046,5.535-0.346,5.535c1.913,0,5.093-3.441,8.143-8.714C42.061,64.974,43.192,65.801,43.455,66.541z"
			/>
		<path fill="#F0C814" d="M64.54,66.541c-3.009,5.228-8.192,10.932-16.076,10.932c-5.49,0-8.232-2.742-8.232-7.316
			c0-5.969,4.615-16.423,13.285-16.423c4.706,0,8.237,3.396,5.489,9.322c-1.916,4.227-5.53,6.274-12.764,5.403
			c0,0-1.654,5.183,3.877,5.183c4.36,0,9.061-3.225,12.197-8.714C63.143,64.974,64.275,65.801,64.54,66.541z M47.288,65.147
			c4.051,0.653,5.531-1.263,6.448-3.486c0.825-1.784,0.955-3.005-0.567-3.005C49.768,58.656,47.288,65.147,47.288,65.147z"/>
		<path fill="#F0C814" d="M88.102,66.541c-4.486,7.84-9.407,10.498-14.199,12.762c0,0-0.611,1.568-1.046,2.702
			c-1.786,4.183-4.229,8.365-9.15,8.365c-3.484,0-5.14-2.136-5.095-4.617c0.087-2.92,2.66-4.835,4.921-5.881
			c1.615-0.784,4.051-1.787,5.01-2.354l1.134-2.746c0,0-2.092,2.7-5.184,2.7c-3.396,0-6.229-2.829-3.005-10.757l5.052-12.418h6.147
			l-5.58,13.809c-1.742,4.314-1.175,5.013-0.261,5.013c1.958,0,4.137-3.27,6.446-7.363l4.662-11.459h6.145l-8.585,21.084
			c4.097-2.091,7.277-5.051,10.371-10.456C86.71,64.974,87.842,65.801,88.102,66.541z M62.878,86.494
			c1.047-0.045,2.66-1.178,4.142-5.142c-1.308,0.566-2.312,0.96-3.528,1.654c-1.001,0.655-1.83,1.436-1.83,2.31
			C61.661,86.012,62.14,86.494,62.878,86.494z"/>
	</g>
	<path fill="#FFFFFF" d="M20.293,101.069h11.224v6.163H8.512l7.221-7.755l-7.221-6.957h11.781L20.293,101.069L20.293,101.069z
		 M110.403,92.519H98.619v8.549h-11.22v6.163h23.005l-7.224-7.755L110.403,92.519z M97.827,85.562H21.085v14.712h76.741
		L97.827,85.562L97.827,85.562z"/>
	<g enable-background="new    ">
		<path d="M39.567,88.076v0.803c0,0.236-0.114,0.379-0.342,0.427c-0.021,0.003-0.049,0.009-0.085,0.016
			c-0.036,0.007-0.102,0.018-0.198,0.035c-0.096,0.017-0.226,0.04-0.389,0.069l-3.446,8.533h-1.661L30,89.428
			c-0.165-0.03-0.295-0.053-0.392-0.069s-0.162-0.029-0.199-0.035c-0.036-0.007-0.064-0.012-0.085-0.016
			c-0.228-0.049-0.342-0.191-0.342-0.427v-0.804h0.472h0.563h0.92h1.736v0.804c0,0.236-0.114,0.379-0.342,0.427
			c-0.014,0.003-0.035,0.008-0.065,0.016c-0.03,0.007-0.077,0.019-0.143,0.035s-0.138,0.034-0.218,0.053l1.97,5.11
			c0.078,0.196,0.152,0.412,0.222,0.646c0.071,0.236,0.138,0.483,0.201,0.741c0.105-0.524,0.235-0.986,0.389-1.387l1.963-5.108
			c-0.082-0.02-0.157-0.038-0.224-0.054c-0.067-0.016-0.115-0.029-0.146-0.036c-0.031-0.007-0.052-0.013-0.066-0.016
			c-0.228-0.049-0.342-0.191-0.342-0.427v-0.804h1.74h0.916h0.567H39.567z"/>
		<path d="M44.446,89.322c-0.037,0.007-0.105,0.019-0.204,0.037c-0.099,0.017-0.233,0.041-0.404,0.072v7.174
			c0.171,0.031,0.305,0.054,0.404,0.072s0.167,0.03,0.204,0.037c0.037,0.007,0.066,0.012,0.086,0.016
			c0.228,0.049,0.342,0.191,0.342,0.428v0.803h-1.036h-1.846h-1.036v-0.803c0-0.236,0.114-0.379,0.342-0.428
			c0.02-0.003,0.049-0.008,0.086-0.016c0.037-0.007,0.106-0.019,0.204-0.037c0.098-0.017,0.233-0.041,0.404-0.072v-7.174
			c-0.171-0.031-0.305-0.054-0.404-0.072c-0.098-0.017-0.167-0.03-0.204-0.037c-0.037-0.007-0.066-0.012-0.086-0.016
			c-0.228-0.049-0.342-0.191-0.342-0.428v-0.803h1.036h1.846h1.036v0.803c0,0.236-0.114,0.379-0.342,0.428
			C44.512,89.311,44.483,89.316,44.446,89.322z"/>
		<path d="M53.579,88.076v0.952v0.511v1.134h-0.059h-0.166h-0.562c-0.176,0-0.282-0.085-0.318-0.255
			c-0.019-0.106-0.052-0.399-0.099-0.879h-3.177v2.741h3.343v1.415h-3.343v2.796h3.177c0.048-0.481,0.081-0.774,0.099-0.88
			c0.036-0.17,0.143-0.255,0.318-0.255h0.562h0.166h0.059v1.135v0.511v0.959h-6.234H46.31v-0.803c0-0.236,0.114-0.379,0.342-0.428
			c0.02-0.003,0.049-0.009,0.086-0.016c0.037-0.007,0.105-0.019,0.204-0.037c0.099-0.017,0.233-0.041,0.404-0.072v-7.174
			c-0.171-0.03-0.305-0.054-0.404-0.072c-0.099-0.018-0.167-0.031-0.204-0.037c-0.037-0.007-0.066-0.012-0.086-0.016
			c-0.228-0.049-0.342-0.191-0.342-0.428v-0.803h1.036L53.579,88.076z"/>
		<path d="M65.455,88.076v0.803c0,0.236-0.114,0.379-0.342,0.428c-0.02,0.003-0.049,0.008-0.086,0.016
			c-0.037,0.007-0.105,0.019-0.204,0.037c-0.099,0.017-0.233,0.041-0.404,0.072v8.529h-0.95c-0.146,0-0.266-0.023-0.362-0.068
			c-0.096-0.045-0.189-0.128-0.28-0.246l-5.168-6.582c0.014,0.147,0.024,0.291,0.031,0.434c0.007,0.144,0.01,0.275,0.01,0.393v4.715
			c0.573,0.079,0.869,0.12,0.891,0.124c0.228,0.049,0.342,0.191,0.342,0.428v0.803h-1.233h-1.62h-1.036v-0.803
			c0-0.236,0.114-0.379,0.342-0.428c0.02-0.003,0.049-0.008,0.086-0.016c0.037-0.007,0.106-0.019,0.204-0.037
			c0.098-0.017,0.233-0.041,0.404-0.072v-7.174c-0.171-0.031-0.305-0.054-0.404-0.072c-0.098-0.017-0.167-0.03-0.204-0.036
			s-0.066-0.012-0.086-0.016c-0.228-0.049-0.342-0.191-0.342-0.427v-0.804h1.036h0.964c0.082,0,0.15,0.003,0.205,0.011
			c0.054,0.007,0.103,0.021,0.147,0.041c0.043,0.021,0.085,0.05,0.126,0.089c0.04,0.039,0.086,0.09,0.137,0.154l5.188,6.61
			c-0.018-0.158-0.031-0.315-0.038-0.468c-0.007-0.153-0.011-0.295-0.011-0.427v-4.653c-0.568-0.078-0.866-0.12-0.892-0.124
			c-0.228-0.049-0.342-0.191-0.342-0.428v-0.803h1.233h1.62h1.038V88.076z"/>
	</g>
	<g enable-background="new    ">
		<path d="M77.507,88.076v0.803c0,0.236-0.114,0.379-0.342,0.428c-0.02,0.003-0.049,0.008-0.086,0.016
			c-0.037,0.007-0.105,0.019-0.204,0.037s-0.233,0.041-0.404,0.072v8.529h-0.95c-0.146,0-0.266-0.023-0.362-0.068
			s-0.189-0.128-0.28-0.246l-5.168-6.582c0.014,0.147,0.024,0.291,0.031,0.434c0.007,0.144,0.01,0.275,0.01,0.393v4.715
			c0.573,0.079,0.869,0.12,0.891,0.124c0.228,0.049,0.342,0.191,0.342,0.428v0.803h-1.233h-1.62h-1.035v-0.803
			c0-0.236,0.114-0.379,0.342-0.428c0.02-0.003,0.049-0.008,0.086-0.016c0.037-0.007,0.106-0.019,0.204-0.037
			c0.098-0.017,0.233-0.041,0.404-0.072v-7.174c-0.171-0.031-0.305-0.054-0.404-0.072c-0.098-0.017-0.167-0.03-0.204-0.036
			c-0.037-0.007-0.066-0.012-0.086-0.016c-0.228-0.049-0.342-0.191-0.342-0.427v-0.804h1.035h0.964c0.082,0,0.15,0.003,0.205,0.011
			c0.054,0.007,0.103,0.021,0.147,0.041c0.043,0.021,0.085,0.05,0.126,0.089c0.04,0.039,0.086,0.09,0.137,0.154l5.189,6.61
			c-0.018-0.158-0.031-0.315-0.038-0.468c-0.007-0.153-0.011-0.295-0.01-0.427v-4.653c-0.569-0.078-0.866-0.12-0.892-0.124
			c-0.228-0.049-0.342-0.191-0.342-0.428v-0.803h1.234h1.62h1.036V88.076z"/>
	</g>
	<g enable-background="new    ">
		<path d="M88.696,97.262v0.698h-0.485H87.14h-0.228h-0.123h-1.433v-0.698c0-0.158,0.091-0.275,0.271-0.351
			c0.033-0.013,0.124-0.052,0.273-0.114l-0.053-0.144l-0.491-1.345H81.42l-0.513,1.402l-0.031,0.087
			c0.15,0.064,0.242,0.101,0.273,0.115c0.181,0.075,0.271,0.192,0.271,0.351v0.698h-1.426h-0.129h-0.228h-1.071h-0.485v-0.698
			c0-0.158,0.091-0.275,0.271-0.351c0.072-0.03,0.322-0.134,0.749-0.315l3.347-8.521h1.88l3.347,8.521
			c0.43,0.181,0.68,0.286,0.749,0.315C88.606,96.987,88.696,97.104,88.696,97.262z M81.893,94.01h2.991l-1.123-3.071
			c-0.055-0.148-0.116-0.321-0.181-0.516c-0.066-0.198-0.131-0.413-0.195-0.646c-0.064,0.234-0.127,0.451-0.188,0.649
			c-0.061,0.2-0.121,0.375-0.181,0.526L81.893,94.01z"/>
	</g>
	<path fill="#F0C814" d="M88.102,75.446c0-2.507,1.98-4.487,4.487-4.487s4.531,1.979,4.531,4.487s-2.024,4.487-4.531,4.487
		C90.082,79.933,88.102,77.954,88.102,75.446z M93.16,68.716l6.598-20.895h8.094L97.47,68.716H93.16z"/>
</g>
</svg>
