<?xml version="1.0" encoding="utf-8"?>
<!-- Generator: Adobe Illustrator 19.0.0, SVG Export Plug-In . SVG Version: 6.00 Build 0)  -->
<svg version="1.1" id="Vector_Smart_Object_xA0_Obraz_1_"
	 xmlns="http://www.w3.org/2000/svg" xmlns:xlink="http://www.w3.org/1999/xlink" x="0px" y="0px" viewBox="-232 316 146 162"
	 enable-background="new -232 316 146 162" xml:space="preserve">
<image overflow="visible" enable-background="new    " width="144" height="160" id="Vector_Smart_Object_xA0_Obraz" xlink:href="9F881706.png"  transform="matrix(1 0 0 1 -231 317)">
</image>
<path fill="#F0C814" d="M-86.4,427.4c0,6.7-4.7,14.9-10.5,18.2l-51.8,29.9c-5.8,3.3-15.3,3.3-21.1,0l-51.7-29.9
	c-5.8-3.3-10.5-11.5-10.5-18.2v-59.8c0-6.7,4.7-14.9,10.5-18.2l51.8-29.9c5.8-3.3,15.3-3.3,21.1,0l51.8,29.9
	c5.8,3.3,10.5,11.5,10.5,18.2L-86.4,427.4L-86.4,427.4z"/>
<path d="M-94.1,424.2c0,6-4.2,13.3-9.4,16.3l-46.2,26.7c-5.2,3-13.6,3-18.8,0l-46.2-26.7c-5.2-3-9.4-10.3-9.4-16.3v-53.4
	c0-6,4.2-13.3,9.4-16.3l46.2-26.7c5.2-3,13.6-3,18.8,0l46.2,26.7c5.2,3,9.4,10.3,9.4,16.3V424.2L-94.1,424.2z"/>
<g>
	<path fill="#F0C814" d="M-178.8,398.3c-4.3,7.5-9.3,13.4-15.4,13.4c-5.2,0-7.5-3.9-3.7-13.4l1.2-3.1c1.1-2.6,1.9-4.6,1.9-5.4
		c0-0.7-0.6-1.1-1.4-1.1c-1.3,0-3.8,1.2-6.2,3.9l-7.4,18.4h-7.5l17.5-42.5h7.5l-7.4,17.5c0,0,3.8-3.5,8.2-3.5c3.1,0,4.9,1.7,4.9,4.5
		c0,1.4-0.5,3.4-1.7,6.2l-2.8,6.9c-2.5,6.2-1.3,6.8-0.4,6.8c2.3,0,6.3-4.2,10-10.7C-180.5,396.4-179.2,397.4-178.8,398.3z"/>
	<path fill="#F0C814" d="M-153,398.3c-3.6,6.5-10,13.5-19.7,13.5c-6.7,0-10.1-3.4-10.1-9c0-7.3,5.7-20.2,16.3-20.2
		c5.8,0,10.1,4.2,6.7,11.4c-2.4,5.2-6.8,7.7-15.7,6.6c0,0-2,6.4,4.8,6.4c5.4,0,11.1-4,15-10.7C-154.7,396.4-153.3,397.4-153,398.3z
		 M-174.1,396.6c5,0.8,6.8-1.5,7.9-4.3c1-2.2,1.2-3.7-0.7-3.7C-171.1,388.7-174.1,396.6-174.1,396.6z"/>
	<path fill="#F0C814" d="M-124,398.3c-5.5,9.7-11.6,12.9-17.5,15.7c0,0-0.8,1.9-1.3,3.3c-2.2,5.1-5.2,10.3-11.2,10.3
		c-4.3,0-6.3-2.6-6.3-5.7c0.1-3.6,3.3-5.9,6-7.2c2-1,5-2.2,6.2-2.9l1.4-3.4c0,0-2.6,3.3-6.4,3.3c-4.2,0-7.6-3.5-3.7-13.2l6.2-15.2
		h7.6l-6.9,17c-2.1,5.3-1.4,6.2-0.3,6.2c2.4,0,5.1-4,7.9-9l5.7-14.1h7.5l-10.4,25.8c5-2.6,8.9-6.2,12.7-12.8
		C-125.7,396.4-124.3,397.4-124,398.3z M-155,422.8c1.3-0.1,3.3-1.4,5.1-6.3c-1.6,0.7-2.8,1.2-4.3,2c-1.2,0.8-2.2,1.8-2.2,2.8
		C-156.5,422.2-155.9,422.8-155,422.8z"/>
</g>
<path fill="#FFFFFF" d="M-207.3,440.7h13.8v7.6h-28.2l8.9-9.5l-8.9-8.5h14.5L-207.3,440.7L-207.3,440.7z M-96.6,430.2h-14.5v10.5
	h-13.8v7.6h28.2l-8.9-9.5L-96.6,430.2z M-112.1,421.7h-94.2v18.1h94.2L-112.1,421.7L-112.1,421.7z"/>
<text transform="matrix(1 0 0 1 -196.8738 436.9121)" font-family="'ArialMT'" font-size="16.7833px">VIEN</text>
<text transform="matrix(1 0 0 1 -150.1497 436.9121)" font-family="'ArialMT'" font-size="16.7833px">N</text>
<text transform="matrix(1 0 0 1 -136.6146 436.9121)" font-family="'ArialMT'" font-size="16.7833px">A</text>
<path fill="#F0C814" d="M-124,409.3c0-3.1,2.4-5.5,5.5-5.5s5.6,2.4,5.6,5.5c0,3.1-2.5,5.5-5.6,5.5S-124,412.4-124,409.3z
	 M-117.8,401l8.1-25.7h9.9l-12.7,25.7H-117.8z"/>
</svg>
